<mxfile host="app.diagrams.net" modified="2024-04-27T13:45:09.492Z" agent="Mozilla/5.0 (Windows NT 10.0; Win64; x64) AppleWebKit/537.36 (KHTML, like Gecko) Chrome/124.0.0.0 Safari/537.36" etag="xTzSybSQP3RJod-8ZaVb" version="24.3.1" type="device">
  <diagram name="Página-1" id="K2LVI0vM98WJFRntyZM3">
    <mxGraphModel dx="819" dy="441" grid="1" gridSize="10" guides="1" tooltips="1" connect="1" arrows="1" fold="1" page="1" pageScale="1" pageWidth="827" pageHeight="1169" math="0" shadow="0">
      <root>
        <mxCell id="0" />
        <mxCell id="1" parent="0" />
        <mxCell id="wjakXNuv-kxN6Nm3Yfz_-1" value="Usuario" style="shape=umlActor;verticalLabelPosition=bottom;verticalAlign=top;html=1;outlineConnect=0;" vertex="1" parent="1">
          <mxGeometry x="120" y="560" width="30" height="60" as="geometry" />
        </mxCell>
        <mxCell id="wjakXNuv-kxN6Nm3Yfz_-2" value="&lt;font style=&quot;font-size: 10px;&quot;&gt;Faz Doações&lt;/font&gt;" style="ellipse;whiteSpace=wrap;html=1;" vertex="1" parent="1">
          <mxGeometry x="120" y="490" width="70" height="30" as="geometry" />
        </mxCell>
        <mxCell id="wjakXNuv-kxN6Nm3Yfz_-3" value="Cadastra-se" style="ellipse;whiteSpace=wrap;html=1;" vertex="1" parent="1">
          <mxGeometry x="190" y="510" width="70" height="40" as="geometry" />
        </mxCell>
        <mxCell id="wjakXNuv-kxN6Nm3Yfz_-4" value="&lt;font style=&quot;font-size: 11px;&quot;&gt;Vê histórico de doações&lt;/font&gt;" style="ellipse;whiteSpace=wrap;html=1;" vertex="1" parent="1">
          <mxGeometry x="210" y="560" width="70" height="40" as="geometry" />
        </mxCell>
        <mxCell id="wjakXNuv-kxN6Nm3Yfz_-5" value="&lt;font style=&quot;font-size: 8px;&quot;&gt;Olha as ONGs&lt;/font&gt;" style="ellipse;whiteSpace=wrap;html=1;" vertex="1" parent="1">
          <mxGeometry x="260" y="630" width="50" height="30" as="geometry" />
        </mxCell>
        <mxCell id="wjakXNuv-kxN6Nm3Yfz_-6" value="" style="endArrow=none;dashed=1;html=1;dashPattern=1 3;strokeWidth=2;rounded=0;exitX=-0.022;exitY=0.452;exitDx=0;exitDy=0;exitPerimeter=0;" edge="1" parent="1" source="wjakXNuv-kxN6Nm3Yfz_-7" target="wjakXNuv-kxN6Nm3Yfz_-1">
          <mxGeometry width="50" height="50" relative="1" as="geometry">
            <mxPoint x="270" y="720" as="sourcePoint" />
            <mxPoint x="320" y="670" as="targetPoint" />
          </mxGeometry>
        </mxCell>
        <mxCell id="wjakXNuv-kxN6Nm3Yfz_-8" value="" style="endArrow=classic;html=1;rounded=0;entryX=0.274;entryY=0.905;entryDx=0;entryDy=0;entryPerimeter=0;" edge="1" parent="1" source="wjakXNuv-kxN6Nm3Yfz_-1" target="wjakXNuv-kxN6Nm3Yfz_-2">
          <mxGeometry width="50" height="50" relative="1" as="geometry">
            <mxPoint x="140" y="560" as="sourcePoint" />
            <mxPoint x="290" y="590" as="targetPoint" />
          </mxGeometry>
        </mxCell>
        <mxCell id="wjakXNuv-kxN6Nm3Yfz_-9" value="" style="endArrow=classic;html=1;rounded=0;entryX=0;entryY=0.4;entryDx=0;entryDy=0;entryPerimeter=0;" edge="1" parent="1" source="wjakXNuv-kxN6Nm3Yfz_-1" target="wjakXNuv-kxN6Nm3Yfz_-3">
          <mxGeometry width="50" height="50" relative="1" as="geometry">
            <mxPoint x="146" y="580" as="sourcePoint" />
            <mxPoint x="149" y="526" as="targetPoint" />
          </mxGeometry>
        </mxCell>
        <mxCell id="wjakXNuv-kxN6Nm3Yfz_-10" value="" style="endArrow=classic;html=1;rounded=0;" edge="1" parent="1" source="wjakXNuv-kxN6Nm3Yfz_-1" target="wjakXNuv-kxN6Nm3Yfz_-4">
          <mxGeometry width="50" height="50" relative="1" as="geometry">
            <mxPoint x="160" y="580" as="sourcePoint" />
            <mxPoint x="290" y="590" as="targetPoint" />
          </mxGeometry>
        </mxCell>
        <mxCell id="wjakXNuv-kxN6Nm3Yfz_-11" value="" style="endArrow=none;dashed=1;html=1;dashPattern=1 3;strokeWidth=2;rounded=0;exitX=-0.022;exitY=0.452;exitDx=0;exitDy=0;exitPerimeter=0;" edge="1" parent="1" source="wjakXNuv-kxN6Nm3Yfz_-5" target="wjakXNuv-kxN6Nm3Yfz_-7">
          <mxGeometry width="50" height="50" relative="1" as="geometry">
            <mxPoint x="259" y="654" as="sourcePoint" />
            <mxPoint x="150" y="598" as="targetPoint" />
          </mxGeometry>
        </mxCell>
        <mxCell id="wjakXNuv-kxN6Nm3Yfz_-7" value="&lt;font style=&quot;font-size: 7px;&quot;&gt;EXTENDS&lt;/font&gt;" style="text;html=1;align=center;verticalAlign=middle;resizable=0;points=[];autosize=1;strokeColor=none;fillColor=none;rotation=30;container=1;" vertex="1" parent="1">
          <mxGeometry x="190" y="610" width="60" height="30" as="geometry" />
        </mxCell>
        <mxCell id="wjakXNuv-kxN6Nm3Yfz_-12" value="&lt;font style=&quot;font-size: 11px;&quot;&gt;Faz Login&lt;/font&gt;" style="ellipse;whiteSpace=wrap;html=1;" vertex="1" parent="1">
          <mxGeometry x="180" y="660" width="60" height="30" as="geometry" />
        </mxCell>
        <mxCell id="wjakXNuv-kxN6Nm3Yfz_-13" value="" style="endArrow=classic;html=1;rounded=0;entryX=0.247;entryY=0.047;entryDx=0;entryDy=0;entryPerimeter=0;" edge="1" parent="1" source="wjakXNuv-kxN6Nm3Yfz_-1" target="wjakXNuv-kxN6Nm3Yfz_-12">
          <mxGeometry width="50" height="50" relative="1" as="geometry">
            <mxPoint x="240" y="640" as="sourcePoint" />
            <mxPoint x="290" y="590" as="targetPoint" />
          </mxGeometry>
        </mxCell>
      </root>
    </mxGraphModel>
  </diagram>
</mxfile>
